<?xml version="1.0" encoding="UTF-8" standalone="no"?>
<svg
   version="1.1"
   width="595px"
   height="318px"
   viewBox="0 0 595 318"
   style="shape-rendering:geometricPrecision; text-rendering:geometricPrecision; image-rendering:optimizeQuality; fill-rule:evenodd; clip-rule:evenodd"
   id="svg12"
   sodipodi:docname="devlup_logo copy.svg"
   inkscape:version="1.4.2 (ebf0e940, 2025-05-08)"
   xmlns:inkscape="http://www.inkscape.org/namespaces/inkscape"
   xmlns:sodipodi="http://sodipodi.sourceforge.net/DTD/sodipodi-0.dtd"
   xmlns="http://www.w3.org/2000/svg"
   xmlns:svg="http://www.w3.org/2000/svg">
  <defs
     id="defs12">
    <inkscape:path-effect
       effect="powerclip"
       message=""
       id="path-effect17"
       is_visible="true"
       lpeversion="1"
       inverse="true"
       flatten="false"
       hide_clip="false" />
    <inkscape:path-effect
       effect="powerclip"
       message=""
       id="path-effect13"
       is_visible="true"
       lpeversion="1"
       inverse="true"
       flatten="false"
       hide_clip="false" />
    <clipPath
       clipPathUnits="userSpaceOnUse"
       id="clipPath12">
      <g
         id="g13"
         style="display:none">
        <path
           style="opacity:1"
           fill="#282828"
           d="m 126.5,130.5 c 0.958,0.453 1.792,1.119 2.5,2 0.667,14 0.667,28 0,42 -0.374,0.916 -0.874,1.75 -1.5,2.5 -15.667,0.667 -31.3333,0.667 -47,0 -1.4733,-0.71 -2.1399,-1.876 -2,-3.5 0,-14.333 0,-28.667 0,-43 16,0 32,0 48,0 z"
           id="path13" />
      </g>
      <path
         id="lpe_path-effect13"
         class="powerclip"
         d="M 61.499975,93.511751 H 146.5 V 194.50025 H 61.499975 Z M 126.5,130.5 c -16,0 -32,0 -48,0 0,14.333 0,28.667 0,43 -0.1399,1.624 0.5267,2.79 2,3.5 15.6667,0.667 31.333,0.667 47,0 0.626,-0.75 1.126,-1.584 1.5,-2.5 0.667,-14 0.667,-28 0,-42 -0.708,-0.881 -1.542,-1.547 -2.5,-2 z" />
    </clipPath>
    <clipPath
       clipPathUnits="userSpaceOnUse"
       id="clipPath17">
      <g
         id="g17"
         style="display:none">
        <path
           style="opacity:1"
           fill="#282828"
           d="m 470.5,130.5 c 16,0 32,0 48,0 0,15 0,30 0,45 -0.789,0.283 -1.456,0.783 -2,1.5 -15.711,0.817 -31.378,0.651 -47,-0.5 -0.692,-0.525 -1.192,-1.192 -1.5,-2 -0.833,-14.345 -0.666,-28.678 0.5,-43 0.683,-0.363 1.35,-0.696 2,-1 z"
           id="path17" />
      </g>
      <path
         id="lpe_path-effect17"
         class="powerclip"
         d="m 450.43736,113.43736 h 85.12528 V 213.60284 H 450.43736 Z M 470.5,130.5 c -0.65,0.304 -1.317,0.637 -2,1 -1.166,14.322 -1.333,28.655 -0.5,43 0.308,0.808 0.808,1.475 1.5,2 15.622,1.151 31.289,1.317 47,0.5 0.544,-0.717 1.211,-1.217 2,-1.5 0,-15 0,-30 0,-45 -16,0 -32,0 -48,0 z" />
    </clipPath>
  </defs>
  <sodipodi:namedview
     id="namedview12"
     pagecolor="#505050"
     bordercolor="#eeeeee"
     borderopacity="1"
     inkscape:showpageshadow="0"
     inkscape:pageopacity="0"
     inkscape:pagecheckerboard="0"
     inkscape:deskcolor="#505050"
     inkscape:zoom="1.0342857"
     inkscape:cx="458.28729"
     inkscape:cy="353.8674"
     inkscape:window-width="1920"
     inkscape:window-height="1141"
     inkscape:window-x="0"
     inkscape:window-y="31"
     inkscape:window-maximized="1"
     inkscape:current-layer="svg12" />
  <g
     id="g2"
     clip-path="url(#clipPath12)"
     inkscape:path-effect="#path-effect13">
    <path
       style="opacity:1"
       fill="#d76b2a"
       d="m 77.5,129.5 c 0,-3.667 0,-7.333 0,-11 17.0033,0.167 34.003,0 51,-0.5 0.812,-6.085 1.312,-12.252 1.5,-18.5 3.409,-1.1219 6.909,-1.2886 10.5,-0.5 0.663,14.927 0.996,29.927 1,45 -0.004,15.073 -0.337,30.073 -1,45 -19.667,0.667 -39.333,0.667 -59,0 -4.8333,-4.833 -9.6667,-9.667 -14.5,-14.5 -0.6667,-14.667 -0.6667,-29.333 0,-44 3.3936,-0.956 6.8936,-1.289 10.5,-1 z"
       id="path2"
       inkscape:original-d="m 77.5,129.5 c 0,-3.667 0,-7.333 0,-11 17.0033,0.167 34.003,0 51,-0.5 0.812,-6.085 1.312,-12.252 1.5,-18.5 3.409,-1.1219 6.909,-1.2886 10.5,-0.5 0.663,14.927 0.996,29.927 1,45 -0.004,15.073 -0.337,30.073 -1,45 -19.667,0.667 -39.333,0.667 -59,0 -4.8333,-4.833 -9.6667,-9.667 -14.5,-14.5 -0.6667,-14.667 -0.6667,-29.333 0,-44 3.3936,-0.956 6.8936,-1.289 10.5,-1 z" />
  </g>
  <g
     id="g3">
    <path
       style="opacity:1"
       fill="#d46a2a"
       d="M 339.5,98.5 C 342.833,98.5 346.167,98.5 349.5,98.5C 349.667,128.502 349.5,158.502 349,188.5C 347.262,189.127 345.429,189.46 343.5,189.5C 341.359,189.387 339.525,188.72 338,187.5C 337.833,172.833 337.667,158.167 337.5,143.5C 337.516,128.279 338.183,113.279 339.5,98.5 Z"
       id="path3" />
  </g>
  <g
     id="g4">
    <path
       style="opacity:1"
       fill="#d66b2a"
       d="M 171.5,118.5 C 186.837,118.333 202.17,118.5 217.5,119C 222,123.5 226.5,128 231,132.5C 231.667,136.833 231.667,141.167 231,145.5C 226.468,150.367 221.634,154.867 216.5,159C 204.5,159.667 192.5,159.667 180.5,159C 179.873,157.262 179.54,155.429 179.5,153.5C 179.613,151.359 180.28,149.525 181.5,148C 193.847,147.833 206.18,147.333 218.5,146.5C 219.614,141.554 219.781,136.554 219,131.5C 218.5,131 218,130.5 217.5,130C 202.167,129.333 186.833,129.333 171.5,130C 170.975,130.692 170.308,131.192 169.5,131.5C 168.334,146.155 168.167,160.822 169,175.5C 169.75,176.126 170.584,176.626 171.5,177C 189.83,177.5 208.164,177.667 226.5,177.5C 226.793,181.437 226.46,185.27 225.5,189C 207.833,189.667 190.167,189.667 172.5,189C 167.366,184.867 162.532,180.367 158,175.5C 156.369,161.594 156.036,147.594 157,133.5C 162.037,128.631 166.87,123.631 171.5,118.5 Z"
       id="path4" />
  </g>
  <g
     id="g5">
    <path
       style="opacity:1"
       fill="#3c5cd5"
       d="M 247.5,118.5 C 251.5,118.5 255.5,118.5 259.5,118.5C 259.833,137.845 259.5,157.178 258.5,176.5C 254.849,173.349 251.349,170.016 248,166.5C 247.5,150.503 247.333,134.503 247.5,118.5 Z"
       id="path5" />
  </g>
  <g
     id="g6">
    <path
       style="opacity:1"
       fill="#d66b2a"
       d="M 310.5,118.5 C 314.437,118.207 318.27,118.54 322,119.5C 322.667,134.167 322.667,148.833 322,163.5C 313.5,172 305,180.5 296.5,189C 280.17,189.5 263.837,189.667 247.5,189.5C 247.5,185.5 247.5,181.5 247.5,177.5C 262.17,177.667 276.837,177.5 291.5,177C 297.667,170.833 303.833,164.667 310,158.5C 310.5,145.171 310.667,131.837 310.5,118.5 Z"
       id="path6" />
  </g>
  <g
     id="g7">
    <path
       style="opacity:1"
       fill="#d66b2a"
       d="M 365.5,118.5 C 369.673,117.956 373.506,118.623 377,120.5C 377.333,138.833 377.667,157.167 378,175.5C 378.5,176 379,176.5 379.5,177C 395.167,177.667 410.833,177.667 426.5,177C 427.126,176.25 427.626,175.416 428,174.5C 428.5,155.836 428.667,137.17 428.5,118.5C 432.437,118.207 436.27,118.54 440,119.5C 440.667,142.5 440.667,165.5 440,188.5C 420.24,189.659 400.407,189.826 380.5,189C 375.667,184.167 370.833,179.333 366,174.5C 365.5,155.836 365.333,137.17 365.5,118.5 Z"
       id="path7" />
  </g>
  <g
     id="g8"
     clip-path="url(#clipPath17)"
     inkscape:path-effect="#path-effect17">
    <path
       style="opacity:1"
       fill="#d86c2a"
       d="m 519.5,129.5 c -16.509,-0.33 -32.842,0.004 -49,1 -0.65,0.304 -1.317,0.637 -2,1 -1.166,14.322 -1.333,28.655 -0.5,43 0.308,0.808 0.808,1.475 1.5,2 15.622,1.151 31.289,1.317 47,0.5 0.544,-0.717 1.211,-1.217 2,-1.5 0.681,-15.235 1.348,-30.569 2,-46 3.333,0 6.667,0 10,0 0.167,15.004 0,30.004 -0.5,45 -4.833,4.833 -9.667,9.667 -14.5,14.5 -15.667,0.333 -31.333,0.667 -47,1 -0.976,6.076 -1.31,12.242 -1,18.5 -3.937,0.293 -7.77,-0.04 -11.5,-1 -0.5,-29.665 -0.667,-59.331 -0.5,-89 21.003,-0.167 42.003,0 63,0.5 0.956,3.394 1.289,6.894 1,10.5 z"
       id="path8"
       inkscape:original-d="m 519.5,129.5 c -16.509,-0.33 -32.842,0.004 -49,1 -0.65,0.304 -1.317,0.637 -2,1 -1.166,14.322 -1.333,28.655 -0.5,43 0.308,0.808 0.808,1.475 1.5,2 15.622,1.151 31.289,1.317 47,0.5 0.544,-0.717 1.211,-1.217 2,-1.5 0.681,-15.235 1.348,-30.569 2,-46 3.333,0 6.667,0 10,0 0.167,15.004 0,30.004 -0.5,45 -4.833,4.833 -9.667,9.667 -14.5,14.5 -15.667,0.333 -31.333,0.667 -47,1 -0.976,6.076 -1.31,12.242 -1,18.5 -3.937,0.293 -7.77,-0.04 -11.5,-1 -0.5,-29.665 -0.667,-59.331 -0.5,-89 21.003,-0.167 42.003,0 63,0.5 0.956,3.394 1.289,6.894 1,10.5 z" />
  </g>
  <g
     id="g9">
    <path
       style="opacity:1"
       fill="#553a29"
       d="M 77.5,129.5 C 94.0085,129.17 110.342,129.504 126.5,130.5C 110.5,130.5 94.5,130.5 78.5,130.5C 78.5,144.833 78.5,159.167 78.5,173.5C 77.504,159.01 77.1707,144.343 77.5,129.5 Z"
       id="path9" />
  </g>
  <g
     id="g12">
    <path
       style="opacity:1"
       fill="#563a29"
       d="M 470.5,130.5 C 486.658,129.504 502.991,129.17 519.5,129.5C 519.833,129.5 520.167,129.5 520.5,129.5C 519.848,144.931 519.181,160.265 518.5,175.5C 518.5,160.5 518.5,145.5 518.5,130.5C 502.5,130.5 486.5,130.5 470.5,130.5 Z"
       id="path12" />
  </g>
</svg>
